<svg height="6350" width="720" xmlns="http://www.w3.org/2000/svg">
<rect height="6350" fill="#555" width="720"></rect>
<text fill="#7f7" font-family="Courier New" font-size="12" xml:space="preserve">
<tspan x="10" y="26">46 megabytes installed</tspan>
<tspan x="10" y="42"></tspan>
<tspan x="10" y="58">node_modules</tspan>
<tspan x="10" y="74">├── UNMET PEER DEPENDENCY grunt@~0.4.0</tspan>
<tspan x="10" y="90">└─┬ grunt-mock2easy@0.4.3 </tspan>
<tspan x="10" y="106">  ├── async@0.9.2 </tspan>
<tspan x="10" y="122">  ├── colors@0.6.2 </tspan>
<tspan x="10" y="138">  ├─┬ mock2easy@0.0.22 </tspan>
<tspan x="10" y="154">  │ ├── async@1.5.2 </tspan>
<tspan x="10" y="170">  │ ├─┬ body-parser@1.0.2 </tspan>
<tspan x="10" y="186">  │ │ ├── qs@0.6.6 </tspan>
<tspan x="10" y="202">  │ │ ├─┬ raw-body@1.1.7 </tspan>
<tspan x="10" y="218">  │ │ │ ├── bytes@1.0.0 </tspan>
<tspan x="10" y="234">  │ │ │ └── string_decoder@0.10.31 </tspan>
<tspan x="10" y="250">  │ │ └─┬ type-is@1.1.0 </tspan>
<tspan x="10" y="266">  │ │   └── mime@1.2.11 </tspan>
<tspan x="10" y="282">  │ ├─┬ brfs@1.4.3 </tspan>
<tspan x="10" y="298">  │ │ ├─┬ quote-stream@1.0.2 </tspan>
<tspan x="10" y="314">  │ │ │ ├── buffer-equal@0.0.1 </tspan>
<tspan x="10" y="330">  │ │ │ └── minimist@1.2.0 </tspan>
<tspan x="10" y="346">  │ │ ├─┬ resolve@1.3.2 </tspan>
<tspan x="10" y="362">  │ │ │ └── path-parse@1.0.5 </tspan>
<tspan x="10" y="378">  │ │ ├─┬ static-module@1.3.1 </tspan>
<tspan x="10" y="394">  │ │ │ ├─┬ concat-stream@1.4.10 </tspan>
<tspan x="10" y="410">  │ │ │ │ ├─┬ readable-stream@1.1.14 </tspan>
<tspan x="10" y="426">  │ │ │ │ │ └── isarray@0.0.1 </tspan>
<tspan x="10" y="442">  │ │ │ │ └── typedarray@0.0.6 </tspan>
<tspan x="10" y="458">  │ │ │ ├─┬ duplexer2@0.0.2 </tspan>
<tspan x="10" y="474">  │ │ │ │ └─┬ readable-stream@1.1.14 </tspan>
<tspan x="10" y="490">  │ │ │ │   └── isarray@0.0.1 </tspan>
<tspan x="10" y="506">  │ │ │ ├─┬ escodegen@1.3.3 </tspan>
<tspan x="10" y="522">  │ │ │ │ ├── esprima@1.1.1 </tspan>
<tspan x="10" y="538">  │ │ │ │ ├── estraverse@1.5.1 </tspan>
<tspan x="10" y="554">  │ │ │ │ ├── esutils@1.0.0 </tspan>
<tspan x="10" y="570">  │ │ │ │ └─┬ source-map@0.1.43 </tspan>
<tspan x="10" y="586">  │ │ │ │   └── amdefine@1.0.1 </tspan>
<tspan x="10" y="602">  │ │ │ ├─┬ falafel@1.2.0 </tspan>
<tspan x="10" y="618">  │ │ │ │ ├── acorn@1.2.2 </tspan>
<tspan x="10" y="634">  │ │ │ │ ├── foreach@2.0.5 </tspan>
<tspan x="10" y="650">  │ │ │ │ ├── isarray@0.0.1 </tspan>
<tspan x="10" y="666">  │ │ │ │ └── object-keys@1.0.11 </tspan>
<tspan x="10" y="682">  │ │ │ ├─┬ has@1.0.1 </tspan>
<tspan x="10" y="698">  │ │ │ │ └── function-bind@1.1.0 </tspan>
<tspan x="10" y="714">  │ │ │ ├── object-inspect@0.4.0 </tspan>
<tspan x="10" y="730">  │ │ │ ├─┬ quote-stream@0.0.0 </tspan>
<tspan x="10" y="746">  │ │ │ │ └── minimist@0.0.8 </tspan>
<tspan x="10" y="762">  │ │ │ ├─┬ readable-stream@1.0.34 </tspan>
<tspan x="10" y="778">  │ │ │ │ ├── core-util-is@1.0.2 </tspan>
<tspan x="10" y="794">  │ │ │ │ └── isarray@0.0.1 </tspan>
<tspan x="10" y="810">  │ │ │ ├── shallow-copy@0.0.1 </tspan>
<tspan x="10" y="826">  │ │ │ ├─┬ static-eval@0.2.4 </tspan>
<tspan x="10" y="842">  │ │ │ │ └─┬ escodegen@0.0.28 </tspan>
<tspan x="10" y="858">  │ │ │ │   ├── esprima@1.0.4 </tspan>
<tspan x="10" y="874">  │ │ │ │   └── estraverse@1.3.2 </tspan>
<tspan x="10" y="890">  │ │ │ └─┬ through2@0.4.2 </tspan>
<tspan x="10" y="906">  │ │ │   └─┬ xtend@2.1.2 </tspan>
<tspan x="10" y="922">  │ │ │     └── object-keys@0.4.0 </tspan>
<tspan x="10" y="938">  │ │ └─┬ through2@2.0.3 </tspan>
<tspan x="10" y="954">  │ │   └─┬ readable-stream@2.2.9 </tspan>
<tspan x="10" y="970">  │ │     ├── buffer-shims@1.0.0 </tspan>
<tspan x="10" y="986">  │ │     ├── isarray@1.0.0 </tspan>
<tspan x="10" y="1002">  │ │     ├── process-nextick-args@1.0.7 </tspan>
<tspan x="10" y="1018">  │ │     ├── string_decoder@1.0.0 </tspan>
<tspan x="10" y="1034">  │ │     └── util-deprecate@1.0.2 </tspan>
<tspan x="10" y="1050">  │ ├─┬ browserify-middleware@7.1.0 </tspan>
<tspan x="10" y="1066">  │ │ ├─┬ browserify@13.3.0 </tspan>
<tspan x="10" y="1082">  │ │ │ ├── assert@1.4.1 </tspan>
<tspan x="10" y="1098">  │ │ │ ├─┬ browser-pack@6.0.2 </tspan>
<tspan x="10" y="1114">  │ │ │ │ ├─┬ combine-source-map@0.7.2 </tspan>
<tspan x="10" y="1130">  │ │ │ │ │ ├── convert-source-map@1.1.3 </tspan>
<tspan x="10" y="1146">  │ │ │ │ │ ├─┬ inline-source-map@0.6.2 </tspan>
<tspan x="10" y="1162">  │ │ │ │ │ │ └── source-map@0.5.6 </tspan>
<tspan x="10" y="1178">  │ │ │ │ │ ├── lodash.memoize@3.0.4 </tspan>
<tspan x="10" y="1194">  │ │ │ │ │ └── source-map@0.5.6 </tspan>
<tspan x="10" y="1210">  │ │ │ │ └── umd@3.0.1 </tspan>
<tspan x="10" y="1226">  │ │ │ ├─┬ browser-resolve@1.11.2 </tspan>
<tspan x="10" y="1242">  │ │ │ │ └── resolve@1.1.7 </tspan>
<tspan x="10" y="1258">  │ │ │ ├─┬ browserify-zlib@0.1.4 </tspan>
<tspan x="10" y="1274">  │ │ │ │ └── pako@0.2.9 </tspan>
<tspan x="10" y="1290">  │ │ │ ├─┬ buffer@4.9.1 </tspan>
<tspan x="10" y="1306">  │ │ │ │ ├── base64-js@1.2.0 </tspan>
<tspan x="10" y="1322">  │ │ │ │ └── ieee754@1.1.8 </tspan>
<tspan x="10" y="1338">  │ │ │ ├── cached-path-relative@1.0.1 </tspan>
<tspan x="10" y="1354">  │ │ │ ├─┬ concat-stream@1.5.2 </tspan>
<tspan x="10" y="1370">  │ │ │ │ └── readable-stream@2.0.6 </tspan>
<tspan x="10" y="1386">  │ │ │ ├─┬ console-browserify@1.1.0 </tspan>
<tspan x="10" y="1402">  │ │ │ │ └── date-now@0.1.4 </tspan>
<tspan x="10" y="1418">  │ │ │ ├── constants-browserify@1.0.0 </tspan>
<tspan x="10" y="1434">  │ │ │ ├─┬ crypto-browserify@3.11.0 </tspan>
<tspan x="10" y="1450">  │ │ │ │ ├─┬ browserify-cipher@1.0.0 </tspan>
<tspan x="10" y="1466">  │ │ │ │ │ ├─┬ browserify-aes@1.0.6 </tspan>
<tspan x="10" y="1482">  │ │ │ │ │ │ └── buffer-xor@1.0.3 </tspan>
<tspan x="10" y="1498">  │ │ │ │ │ ├─┬ browserify-des@1.0.0 </tspan>
<tspan x="10" y="1514">  │ │ │ │ │ │ └── des.js@1.0.0 </tspan>
<tspan x="10" y="1530">  │ │ │ │ │ └── evp_bytestokey@1.0.0 </tspan>
<tspan x="10" y="1546">  │ │ │ │ ├─┬ browserify-sign@4.0.4 </tspan>
<tspan x="10" y="1562">  │ │ │ │ │ ├── bn.js@4.11.6 </tspan>
<tspan x="10" y="1578">  │ │ │ │ │ ├── browserify-rsa@4.0.1 </tspan>
<tspan x="10" y="1594">  │ │ │ │ │ ├─┬ elliptic@6.4.0 </tspan>
<tspan x="10" y="1610">  │ │ │ │ │ │ ├── brorand@1.1.0 </tspan>
<tspan x="10" y="1626">  │ │ │ │ │ │ ├── hash.js@1.0.3 </tspan>
<tspan x="10" y="1642">  │ │ │ │ │ │ ├── hmac-drbg@1.0.1 </tspan>
<tspan x="10" y="1658">  │ │ │ │ │ │ ├── minimalistic-assert@1.0.0 </tspan>
<tspan x="10" y="1674">  │ │ │ │ │ │ └── minimalistic-crypto-utils@1.0.1 </tspan>
<tspan x="10" y="1690">  │ │ │ │ │ └─┬ parse-asn1@5.1.0 </tspan>
<tspan x="10" y="1706">  │ │ │ │ │   └── asn1.js@4.9.1 </tspan>
<tspan x="10" y="1722">  │ │ │ │ ├── create-ecdh@4.0.0 </tspan>
<tspan x="10" y="1738">  │ │ │ │ ├─┬ create-hash@1.1.2 </tspan>
<tspan x="10" y="1754">  │ │ │ │ │ ├── cipher-base@1.0.3 </tspan>
<tspan x="10" y="1770">  │ │ │ │ │ └── ripemd160@1.0.1 </tspan>
<tspan x="10" y="1786">  │ │ │ │ ├── create-hmac@1.1.4 </tspan>
<tspan x="10" y="1802">  │ │ │ │ ├─┬ diffie-hellman@5.0.2 </tspan>
<tspan x="10" y="1818">  │ │ │ │ │ └── miller-rabin@4.0.0 </tspan>
<tspan x="10" y="1834">  │ │ │ │ ├── pbkdf2@3.0.9 </tspan>
<tspan x="10" y="1850">  │ │ │ │ ├── public-encrypt@4.0.0 </tspan>
<tspan x="10" y="1866">  │ │ │ │ └── randombytes@2.0.3 </tspan>
<tspan x="10" y="1882">  │ │ │ ├── deps-sort@2.0.0 </tspan>
<tspan x="10" y="1898">  │ │ │ ├── domain-browser@1.1.7 </tspan>
<tspan x="10" y="1914">  │ │ │ ├── duplexer2@0.1.4 </tspan>
<tspan x="10" y="1930">  │ │ │ ├── events@1.1.1 </tspan>
<tspan x="10" y="1946">  │ │ │ ├─┬ glob@7.1.1 </tspan>
<tspan x="10" y="1962">  │ │ │ │ ├── fs.realpath@1.0.0 </tspan>
<tspan x="10" y="1978">  │ │ │ │ ├─┬ inflight@1.0.6 </tspan>
<tspan x="10" y="1994">  │ │ │ │ │ └── wrappy@1.0.2 </tspan>
<tspan x="10" y="2010">  │ │ │ │ └── once@1.4.0 </tspan>
<tspan x="10" y="2026">  │ │ │ ├── htmlescape@1.1.1 </tspan>
<tspan x="10" y="2042">  │ │ │ ├── https-browserify@0.0.1 </tspan>
<tspan x="10" y="2058">  │ │ │ ├── inherits@2.0.3 </tspan>
<tspan x="10" y="2074">  │ │ │ ├─┬ insert-module-globals@7.0.1 </tspan>
<tspan x="10" y="2090">  │ │ │ │ ├─┬ concat-stream@1.5.2 </tspan>
<tspan x="10" y="2106">  │ │ │ │ │ └── readable-stream@2.0.6 </tspan>
<tspan x="10" y="2122">  │ │ │ │ ├── is-buffer@1.1.5 </tspan>
<tspan x="10" y="2138">  │ │ │ │ └─┬ lexical-scope@1.2.0 </tspan>
<tspan x="10" y="2154">  │ │ │ │   └─┬ astw@2.2.0 </tspan>
<tspan x="10" y="2170">  │ │ │ │     └── acorn@4.0.11 </tspan>
<tspan x="10" y="2186">  │ │ │ ├─┬ JSONStream@1.3.1 </tspan>
<tspan x="10" y="2202">  │ │ │ │ ├── jsonparse@1.3.0 </tspan>
<tspan x="10" y="2218">  │ │ │ │ └── through@2.3.8 </tspan>
<tspan x="10" y="2234">  │ │ │ ├─┬ labeled-stream-splicer@2.0.0 </tspan>
<tspan x="10" y="2250">  │ │ │ │ ├── isarray@0.0.1 </tspan>
<tspan x="10" y="2266">  │ │ │ │ └── stream-splicer@2.0.0 </tspan>
<tspan x="10" y="2282">  │ │ │ ├─┬ module-deps@4.1.1 </tspan>
<tspan x="10" y="2298">  │ │ │ │ ├─┬ concat-stream@1.5.2 </tspan>
<tspan x="10" y="2314">  │ │ │ │ │ └── readable-stream@2.0.6 </tspan>
<tspan x="10" y="2330">  │ │ │ │ ├─┬ detective@4.5.0 </tspan>
<tspan x="10" y="2346">  │ │ │ │ │ └── acorn@4.0.11 </tspan>
<tspan x="10" y="2362">  │ │ │ │ ├── duplexer2@0.1.4 </tspan>
<tspan x="10" y="2378">  │ │ │ │ └─┬ stream-combiner2@1.1.1 </tspan>
<tspan x="10" y="2394">  │ │ │ │   └── duplexer2@0.1.4 </tspan>
<tspan x="10" y="2410">  │ │ │ ├── os-browserify@0.1.2 </tspan>
<tspan x="10" y="2426">  │ │ │ ├─┬ parents@1.0.1 </tspan>
<tspan x="10" y="2442">  │ │ │ │ └── path-platform@0.11.15 </tspan>
<tspan x="10" y="2458">  │ │ │ ├── path-browserify@0.0.0 </tspan>
<tspan x="10" y="2474">  │ │ │ ├── process@0.11.9 </tspan>
<tspan x="10" y="2490">  │ │ │ ├── punycode@1.4.1 </tspan>
<tspan x="10" y="2506">  │ │ │ ├── querystring-es3@0.2.1 </tspan>
<tspan x="10" y="2522">  │ │ │ ├── read-only-stream@2.0.0 </tspan>
<tspan x="10" y="2538">  │ │ │ ├─┬ shasum@1.0.2 </tspan>
<tspan x="10" y="2554">  │ │ │ │ ├── json-stable-stringify@0.0.1 </tspan>
<tspan x="10" y="2570">  │ │ │ │ └── sha.js@2.4.8 </tspan>
<tspan x="10" y="2586">  │ │ │ ├─┬ shell-quote@1.6.1 </tspan>
<tspan x="10" y="2602">  │ │ │ │ ├── array-filter@0.0.1 </tspan>
<tspan x="10" y="2618">  │ │ │ │ ├── array-map@0.0.0 </tspan>
<tspan x="10" y="2634">  │ │ │ │ ├── array-reduce@0.0.0 </tspan>
<tspan x="10" y="2650">  │ │ │ │ └── jsonify@0.0.0 </tspan>
<tspan x="10" y="2666">  │ │ │ ├── stream-browserify@2.0.1 </tspan>
<tspan x="10" y="2682">  │ │ │ ├─┬ stream-http@2.7.0 </tspan>
<tspan x="10" y="2698">  │ │ │ │ ├── builtin-status-codes@3.0.0 </tspan>
<tspan x="10" y="2714">  │ │ │ │ └── to-arraybuffer@1.0.1 </tspan>
<tspan x="10" y="2730">  │ │ │ ├── subarg@1.0.0 </tspan>
<tspan x="10" y="2746">  │ │ │ ├─┬ syntax-error@1.3.0 </tspan>
<tspan x="10" y="2762">  │ │ │ │ └── acorn@4.0.11 </tspan>
<tspan x="10" y="2778">  │ │ │ ├── timers-browserify@1.4.2 </tspan>
<tspan x="10" y="2794">  │ │ │ ├── tty-browserify@0.0.0 </tspan>
<tspan x="10" y="2810">  │ │ │ ├─┬ url@0.11.0 </tspan>
<tspan x="10" y="2826">  │ │ │ │ ├── punycode@1.3.2 </tspan>
<tspan x="10" y="2842">  │ │ │ │ └── querystring@0.2.0 </tspan>
<tspan x="10" y="2858">  │ │ │ ├─┬ util@0.10.3 </tspan>
<tspan x="10" y="2874">  │ │ │ │ └── inherits@2.0.1 </tspan>
<tspan x="10" y="2890">  │ │ │ └─┬ vm-browserify@0.0.4 </tspan>
<tspan x="10" y="2906">  │ │ │   └── indexof@0.0.1 </tspan>
<tspan x="10" y="2922">  │ │ ├── ms@0.7.3 </tspan>
<tspan x="10" y="2938">  │ │ ├─┬ prepare-response@1.1.3 </tspan>
<tspan x="10" y="2954">  │ │ │ └── mime@1.3.4 </tspan>
<tspan x="10" y="2970">  │ │ ├─┬ promise@7.1.1 </tspan>
<tspan x="10" y="2986">  │ │ │ └── asap@2.0.5 </tspan>
<tspan x="10" y="3002">  │ │ └─┬ uglify-js@2.8.22 </tspan>
<tspan x="10" y="3018">  │ │   ├── source-map@0.5.6 </tspan>
<tspan x="10" y="3034">  │ │   ├── uglify-to-browserify@1.0.2 </tspan>
<tspan x="10" y="3050">  │ │   └─┬ yargs@3.10.0 </tspan>
<tspan x="10" y="3066">  │ │     ├── camelcase@1.2.1 </tspan>
<tspan x="10" y="3082">  │ │     ├─┬ cliui@2.1.0 </tspan>
<tspan x="10" y="3098">  │ │     │ ├─┬ center-align@0.1.3 </tspan>
<tspan x="10" y="3114">  │ │     │ │ ├─┬ align-text@0.1.4 </tspan>
<tspan x="10" y="3130">  │ │     │ │ │ ├── longest@1.0.1 </tspan>
<tspan x="10" y="3146">  │ │     │ │ │ └── repeat-string@1.6.1 </tspan>
<tspan x="10" y="3162">  │ │     │ │ └── lazy-cache@1.0.4 </tspan>
<tspan x="10" y="3178">  │ │     │ ├── right-align@0.1.3 </tspan>
<tspan x="10" y="3194">  │ │     │ └── wordwrap@0.0.2 </tspan>
<tspan x="10" y="3210">  │ │     ├── decamelize@1.2.0 </tspan>
<tspan x="10" y="3226">  │ │     └── window-size@0.1.0 </tspan>
<tspan x="10" y="3242">  │ ├── colors@1.1.2 </tspan>
<tspan x="10" y="3258">  │ ├─┬ cookie-parser@1.0.1 </tspan>
<tspan x="10" y="3274">  │ │ ├── cookie@0.1.0 </tspan>
<tspan x="10" y="3290">  │ │ └── cookie-signature@1.0.3 </tspan>
<tspan x="10" y="3306">  │ ├── debug@0.7.4 </tspan>
<tspan x="10" y="3322">  │ ├─┬ express@4.2.0 </tspan>
<tspan x="10" y="3338">  │ │ ├─┬ accepts@1.0.1 </tspan>
<tspan x="10" y="3354">  │ │ │ └── negotiator@0.4.9 </tspan>
<tspan x="10" y="3370">  │ │ ├── buffer-crc32@0.2.1 </tspan>
<tspan x="10" y="3386">  │ │ ├── cookie@0.1.2 </tspan>
<tspan x="10" y="3402">  │ │ ├── debug@0.8.1 </tspan>
<tspan x="10" y="3418">  │ │ ├── escape-html@1.0.1 </tspan>
<tspan x="10" y="3434">  │ │ ├── fresh@0.2.2 </tspan>
<tspan x="10" y="3450">  │ │ ├── merge-descriptors@0.0.2 </tspan>
<tspan x="10" y="3466">  │ │ ├── methods@1.0.0 </tspan>
<tspan x="10" y="3482">  │ │ ├── parseurl@1.0.1 </tspan>
<tspan x="10" y="3498">  │ │ ├── path-to-regexp@0.1.2 </tspan>
<tspan x="10" y="3514">  │ │ ├── range-parser@1.0.0 </tspan>
<tspan x="10" y="3530">  │ │ ├─┬ send@0.3.0 </tspan>
<tspan x="10" y="3546">  │ │ │ └── debug@0.8.0 </tspan>
<tspan x="10" y="3562">  │ │ ├── serve-static@1.1.0 </tspan>
<tspan x="10" y="3578">  │ │ └── utils-merge@1.0.0 </tspan>
<tspan x="10" y="3594">  │ ├── insert-css@0.2.0 </tspan>
<tspan x="10" y="3610">  │ ├─┬ jade@1.3.1 </tspan>
<tspan x="10" y="3626">  │ │ ├── character-parser@1.2.0 </tspan>
<tspan x="10" y="3642">  │ │ ├── commander@2.1.0 </tspan>
<tspan x="10" y="3658">  │ │ ├─┬ constantinople@2.0.1 </tspan>
<tspan x="10" y="3674">  │ │ │ └─┬ uglify-js@2.4.24 </tspan>
<tspan x="10" y="3690">  │ │ │   ├── async@0.2.10 </tspan>
<tspan x="10" y="3706">  │ │ │   ├── source-map@0.1.34 </tspan>
<tspan x="10" y="3722">  │ │ │   └── yargs@3.5.4 </tspan>
<tspan x="10" y="3738">  │ │ ├── mkdirp@0.3.5 </tspan>
<tspan x="10" y="3754">  │ │ ├─┬ monocle@1.1.51 </tspan>
<tspan x="10" y="3770">  │ │ │ └── readdirp@0.2.5 </tspan>
<tspan x="10" y="3786">  │ │ ├─┬ transformers@2.1.0 </tspan>
<tspan x="10" y="3802">  │ │ │ ├─┬ css@1.0.8 </tspan>
<tspan x="10" y="3818">  │ │ │ │ ├── css-parse@1.0.4 </tspan>
<tspan x="10" y="3834">  │ │ │ │ └── css-stringify@1.0.5 </tspan>
<tspan x="10" y="3850">  │ │ │ ├─┬ promise@2.0.0 </tspan>
<tspan x="10" y="3866">  │ │ │ │ └── is-promise@1.0.1 </tspan>
<tspan x="10" y="3882">  │ │ │ └─┬ uglify-js@2.2.5 </tspan>
<tspan x="10" y="3898">  │ │ │   └── optimist@0.3.7 </tspan>
<tspan x="10" y="3914">  │ │ └─┬ with@3.0.1 </tspan>
<tspan x="10" y="3930">  │ │   └─┬ uglify-js@2.4.24 </tspan>
<tspan x="10" y="3946">  │ │     ├── async@0.2.10 </tspan>
<tspan x="10" y="3962">  │ │     ├── source-map@0.1.34 </tspan>
<tspan x="10" y="3978">  │ │     └── yargs@3.5.4 </tspan>
<tspan x="10" y="3994">  │ ├─┬ mkdirp@0.5.1 </tspan>
<tspan x="10" y="4010">  │ │ └── minimist@0.0.8 </tspan>
<tspan x="10" y="4026">  │ ├─┬ mockjs@0.1.10 </tspan>
<tspan x="10" y="4042">  │ │ └─┬ commander@1.3.2 </tspan>
<tspan x="10" y="4058">  │ │   └── keypress@0.1.0 </tspan>
<tspan x="10" y="4074">  │ ├─┬ morgan@1.0.1 </tspan>
<tspan x="10" y="4090">  │ │ └── bytes@0.3.0 </tspan>
<tspan x="10" y="4106">  │ ├─┬ node.extend@1.1.6 </tspan>
<tspan x="10" y="4122">  │ │ └── is@3.2.1 </tspan>
<tspan x="10" y="4138">  │ ├─┬ nodemon@1.11.0 </tspan>
<tspan x="10" y="4154">  │ │ ├─┬ chokidar@1.6.1 </tspan>
<tspan x="10" y="4170">  │ │ │ ├── async-each@1.0.1 </tspan>
<tspan x="10" y="4186">  │ │ │ ├── glob-parent@2.0.0 </tspan>
<tspan x="10" y="4202">  │ │ │ ├─┬ is-binary-path@1.0.1 </tspan>
<tspan x="10" y="4218">  │ │ │ │ └── binary-extensions@1.8.0 </tspan>
<tspan x="10" y="4234">  │ │ │ ├─┬ is-glob@2.0.1 </tspan>
<tspan x="10" y="4250">  │ │ │ │ └── is-extglob@1.0.0 </tspan>
<tspan x="10" y="4266">  │ │ │ ├── path-is-absolute@1.0.1 </tspan>
<tspan x="10" y="4282">  │ │ │ └─┬ readdirp@2.1.0 </tspan>
<tspan x="10" y="4298">  │ │ │   ├── graceful-fs@4.1.11 </tspan>
<tspan x="10" y="4314">  │ │ │   └── set-immediate-shim@1.0.1 </tspan>
<tspan x="10" y="4330">  │ │ ├─┬ debug@2.6.3 </tspan>
<tspan x="10" y="4346">  │ │ │ └── ms@0.7.2 </tspan>
<tspan x="10" y="4362">  │ │ ├── es6-promise@3.3.1 </tspan>
<tspan x="10" y="4378">  │ │ ├── ignore-by-default@1.0.1 </tspan>
<tspan x="10" y="4394">  │ │ ├─┬ lodash.defaults@3.1.2 </tspan>
<tspan x="10" y="4410">  │ │ │ ├─┬ lodash.assign@3.2.0 </tspan>
<tspan x="10" y="4426">  │ │ │ │ ├─┬ lodash._baseassign@3.2.0 </tspan>
<tspan x="10" y="4442">  │ │ │ │ │ └── lodash._basecopy@3.0.1 </tspan>
<tspan x="10" y="4458">  │ │ │ │ ├─┬ lodash._createassigner@3.1.1 </tspan>
<tspan x="10" y="4474">  │ │ │ │ │ ├── lodash._bindcallback@3.0.1 </tspan>
<tspan x="10" y="4490">  │ │ │ │ │ └── lodash._isiterateecall@3.0.9 </tspan>
<tspan x="10" y="4506">  │ │ │ │ └─┬ lodash.keys@3.1.2 </tspan>
<tspan x="10" y="4522">  │ │ │ │   ├── lodash._getnative@3.9.1 </tspan>
<tspan x="10" y="4538">  │ │ │ │   ├── lodash.isarguments@3.1.0 </tspan>
<tspan x="10" y="4554">  │ │ │ │   └── lodash.isarray@3.0.4 </tspan>
<tspan x="10" y="4570">  │ │ │ └── lodash.restparam@3.6.1 </tspan>
<tspan x="10" y="4586">  │ │ ├─┬ minimatch@3.0.3 </tspan>
<tspan x="10" y="4602">  │ │ │ └─┬ brace-expansion@1.1.7 </tspan>
<tspan x="10" y="4618">  │ │ │   ├── balanced-match@0.4.2 </tspan>
<tspan x="10" y="4634">  │ │ │   └── concat-map@0.0.1 </tspan>
<tspan x="10" y="4650">  │ │ ├─┬ ps-tree@1.1.0 </tspan>
<tspan x="10" y="4666">  │ │ │ └─┬ event-stream@3.3.4 </tspan>
<tspan x="10" y="4682">  │ │ │   ├── duplexer@0.1.1 </tspan>
<tspan x="10" y="4698">  │ │ │   ├── from@0.1.7 </tspan>
<tspan x="10" y="4714">  │ │ │   ├── map-stream@0.1.0 </tspan>
<tspan x="10" y="4730">  │ │ │   ├── pause-stream@0.0.11 </tspan>
<tspan x="10" y="4746">  │ │ │   ├── split@0.3.3 </tspan>
<tspan x="10" y="4762">  │ │ │   └── stream-combiner@0.0.4 </tspan>
<tspan x="10" y="4778">  │ │ ├─┬ touch@1.0.0 </tspan>
<tspan x="10" y="4794">  │ │ │ └─┬ nopt@1.0.10 </tspan>
<tspan x="10" y="4810">  │ │ │   └── abbrev@1.1.0 </tspan>
<tspan x="10" y="4826">  │ │ ├── undefsafe@0.0.3 </tspan>
<tspan x="10" y="4842">  │ │ └─┬ update-notifier@0.5.0 </tspan>
<tspan x="10" y="4858">  │ │   ├─┬ chalk@1.1.3 </tspan>
<tspan x="10" y="4874">  │ │   │ ├── ansi-styles@2.2.1 </tspan>
<tspan x="10" y="4890">  │ │   │ ├── escape-string-regexp@1.0.5 </tspan>
<tspan x="10" y="4906">  │ │   │ ├─┬ has-ansi@2.0.0 </tspan>
<tspan x="10" y="4922">  │ │   │ │ └── ansi-regex@2.1.1 </tspan>
<tspan x="10" y="4938">  │ │   │ ├── strip-ansi@3.0.1 </tspan>
<tspan x="10" y="4954">  │ │   │ └── supports-color@2.0.0 </tspan>
<tspan x="10" y="4970">  │ │   ├─┬ configstore@1.4.0 </tspan>
<tspan x="10" y="4986">  │ │   │ ├── object-assign@4.1.1 </tspan>
<tspan x="10" y="5002">  │ │   │ ├── os-tmpdir@1.0.2 </tspan>
<tspan x="10" y="5018">  │ │   │ ├─┬ osenv@0.1.4 </tspan>
<tspan x="10" y="5034">  │ │   │ │ └── os-homedir@1.0.2 </tspan>
<tspan x="10" y="5050">  │ │   │ ├── uuid@2.0.3 </tspan>
<tspan x="10" y="5066">  │ │   │ ├─┬ write-file-atomic@1.3.1 </tspan>
<tspan x="10" y="5082">  │ │   │ │ ├── imurmurhash@0.1.4 </tspan>
<tspan x="10" y="5098">  │ │   │ │ └── slide@1.1.6 </tspan>
<tspan x="10" y="5114">  │ │   │ └── xdg-basedir@2.0.0 </tspan>
<tspan x="10" y="5130">  │ │   ├── is-npm@1.0.0 </tspan>
<tspan x="10" y="5146">  │ │   ├─┬ latest-version@1.0.1 </tspan>
<tspan x="10" y="5162">  │ │   │ └─┬ package-json@1.2.0 </tspan>
<tspan x="10" y="5178">  │ │   │   ├─┬ got@3.3.1 </tspan>
<tspan x="10" y="5194">  │ │   │   │ ├─┬ duplexify@3.5.0 </tspan>
<tspan x="10" y="5210">  │ │   │   │ │ ├─┬ end-of-stream@1.0.0 </tspan>
<tspan x="10" y="5226">  │ │   │   │ │ │ └── once@1.3.3 </tspan>
<tspan x="10" y="5242">  │ │   │   │ │ └── stream-shift@1.0.0 </tspan>
<tspan x="10" y="5258">  │ │   │   │ ├── infinity-agent@2.0.3 </tspan>
<tspan x="10" y="5274">  │ │   │   │ ├── is-redirect@1.0.0 </tspan>
<tspan x="10" y="5290">  │ │   │   │ ├── is-stream@1.1.0 </tspan>
<tspan x="10" y="5306">  │ │   │   │ ├── lowercase-keys@1.0.0 </tspan>
<tspan x="10" y="5322">  │ │   │   │ ├── nested-error-stacks@1.0.2 </tspan>
<tspan x="10" y="5338">  │ │   │   │ ├── object-assign@3.0.0 </tspan>
<tspan x="10" y="5354">  │ │   │   │ ├── prepend-http@1.0.4 </tspan>
<tspan x="10" y="5370">  │ │   │   │ ├─┬ read-all-stream@3.1.0 </tspan>
<tspan x="10" y="5386">  │ │   │   │ │ └─┬ pinkie-promise@2.0.1 </tspan>
<tspan x="10" y="5402">  │ │   │   │ │   └── pinkie@2.0.4 </tspan>
<tspan x="10" y="5418">  │ │   │   │ └── timed-out@2.0.0 </tspan>
<tspan x="10" y="5434">  │ │   │   └─┬ registry-url@3.1.0 </tspan>
<tspan x="10" y="5450">  │ │   │     └─┬ rc@1.2.1 </tspan>
<tspan x="10" y="5466">  │ │   │       ├── deep-extend@0.4.1 </tspan>
<tspan x="10" y="5482">  │ │   │       ├── ini@1.3.4 </tspan>
<tspan x="10" y="5498">  │ │   │       └── strip-json-comments@2.0.1 </tspan>
<tspan x="10" y="5514">  │ │   ├─┬ repeating@1.1.3 </tspan>
<tspan x="10" y="5530">  │ │   │ └─┬ is-finite@1.0.2 </tspan>
<tspan x="10" y="5546">  │ │   │   └── number-is-nan@1.0.1 </tspan>
<tspan x="10" y="5562">  │ │   ├─┬ semver-diff@2.1.0 </tspan>
<tspan x="10" y="5578">  │ │   │ └── semver@5.3.0 </tspan>
<tspan x="10" y="5594">  │ │   └── string-length@1.0.1 </tspan>
<tspan x="10" y="5610">  │ ├── open@0.0.5 </tspan>
<tspan x="10" y="5626">  │ ├── q@1.5.0 </tspan>
<tspan x="10" y="5642">  │ ├── static-favicon@1.0.2 </tspan>
<tspan x="10" y="5658">  │ ├── underscore@1.8.3 </tspan>
<tspan x="10" y="5674">  │ └─┬ watchify@3.9.0 </tspan>
<tspan x="10" y="5690">  │   ├─┬ anymatch@1.3.0 </tspan>
<tspan x="10" y="5706">  │   │ ├── arrify@1.0.1 </tspan>
<tspan x="10" y="5722">  │   │ └─┬ micromatch@2.3.11 </tspan>
<tspan x="10" y="5738">  │   │   ├─┬ arr-diff@2.0.0 </tspan>
<tspan x="10" y="5754">  │   │   │ └── arr-flatten@1.0.3 </tspan>
<tspan x="10" y="5770">  │   │   ├── array-unique@0.2.1 </tspan>
<tspan x="10" y="5786">  │   │   ├─┬ braces@1.8.5 </tspan>
<tspan x="10" y="5802">  │   │   │ ├─┬ expand-range@1.8.2 </tspan>
<tspan x="10" y="5818">  │   │   │ │ └─┬ fill-range@2.2.3 </tspan>
<tspan x="10" y="5834">  │   │   │ │   ├── is-number@2.1.0 </tspan>
<tspan x="10" y="5850">  │   │   │ │   ├── isobject@2.1.0 </tspan>
<tspan x="10" y="5866">  │   │   │ │   └── randomatic@1.1.6 </tspan>
<tspan x="10" y="5882">  │   │   │ ├── preserve@0.2.0 </tspan>
<tspan x="10" y="5898">  │   │   │ └── repeat-element@1.1.2 </tspan>
<tspan x="10" y="5914">  │   │   ├─┬ expand-brackets@0.1.5 </tspan>
<tspan x="10" y="5930">  │   │   │ └── is-posix-bracket@0.1.1 </tspan>
<tspan x="10" y="5946">  │   │   ├── extglob@0.3.2 </tspan>
<tspan x="10" y="5962">  │   │   ├── filename-regex@2.0.0 </tspan>
<tspan x="10" y="5978">  │   │   ├── kind-of@3.1.0 </tspan>
<tspan x="10" y="5994">  │   │   ├─┬ normalize-path@2.1.1 </tspan>
<tspan x="10" y="6010">  │   │   │ └── remove-trailing-separator@1.0.1 </tspan>
<tspan x="10" y="6026">  │   │   ├─┬ object.omit@2.0.1 </tspan>
<tspan x="10" y="6042">  │   │   │ ├─┬ for-own@0.1.5 </tspan>
<tspan x="10" y="6058">  │   │   │ │ └── for-in@1.0.2 </tspan>
<tspan x="10" y="6074">  │   │   │ └── is-extendable@0.1.1 </tspan>
<tspan x="10" y="6090">  │   │   ├─┬ parse-glob@3.0.4 </tspan>
<tspan x="10" y="6106">  │   │   │ ├── glob-base@0.3.0 </tspan>
<tspan x="10" y="6122">  │   │   │ └── is-dotfile@1.0.2 </tspan>
<tspan x="10" y="6138">  │   │   └─┬ regex-cache@0.4.3 </tspan>
<tspan x="10" y="6154">  │   │     ├── is-equal-shallow@0.1.3 </tspan>
<tspan x="10" y="6170">  │   │     └── is-primitive@2.0.0 </tspan>
<tspan x="10" y="6186">  │   ├─┬ browserify@14.3.0 </tspan>
<tspan x="10" y="6202">  │   │ ├── buffer@5.0.6 </tspan>
<tspan x="10" y="6218">  │   │ ├─┬ concat-stream@1.5.2 </tspan>
<tspan x="10" y="6234">  │   │ │ └── readable-stream@2.0.6 </tspan>
<tspan x="10" y="6250">  │   │ ├── duplexer2@0.1.4 </tspan>
<tspan x="10" y="6266">  │   │ └── https-browserify@1.0.0 </tspan>
<tspan x="10" y="6282">  │   ├── defined@1.0.0 </tspan>
<tspan x="10" y="6298">  │   ├── outpipe@1.1.1 </tspan>
<tspan x="10" y="6314">  │   └── xtend@4.0.1 </tspan>
<tspan x="10" y="6330">  └── underscore@1.7.0</tspan>
</text>
</svg>
